<svg xmlns="http://www.w3.org/2000/svg" height="24" viewBox="0 -960 960 960" width="24"><path d="M460-620v-120H340v-40h120v-120h40v120h120v40H500v120h-40ZM292.308-115.384q-25.308 0-42.654-17.347-17.347-17.346-17.347-42.654 0-25.307 17.347-42.653 17.346-17.347 42.654-17.347 25.307 0 42.654 17.347 17.346 17.346 17.346 42.653 0 25.308-17.346 42.654-17.347 17.347-42.654 17.347Zm375.384 0q-25.307 0-42.654-17.347-17.346-17.346-17.346-42.654 0-25.307 17.346-42.653 17.347-17.347 42.654-17.347 25.308 0 42.654 17.347 17.347 17.346 17.347 42.653 0 25.308-17.347 42.654-17.346 17.347-42.654 17.347Zm-375.384-200q-35 0-52.462-29.5-17.462-29.501-.615-59.27l60.153-107.231L152.307-820H80v-40h97.923l163.846 344.615H622L768.539-780l35.384 18.769-141.154 254.616q-8.692 15.384-22.461 23.308-13.769 7.923-30.616 7.923H324l-48.615 89.23q-6.154 9.231-.385 20t17.308 10.769h435.385v40.001H292.308Z"/></svg>